<svg width="505" height="300" viewBox="0 0 505 300" fill="none" xmlns="http://www.w3.org/2000/svg">
<g clip-path="url(#clip0_29_42)">
<rect x="4" y="4" width="497" height="292" rx="20" fill="#F3F3F3"/>
<rect width="497" height="34" transform="translate(4 4)" fill="#262626"/>
<path d="M216.694 13.4545H220.487L224.492 23.2273H224.663L228.668 13.4545H232.461V28H229.478V18.5327H229.357L225.593 27.929H223.562L219.798 18.4972H219.677V28H216.694V13.4545ZM237.502 28H234.206L239.228 13.4545H243.191L248.205 28H244.909L241.266 16.7784H241.152L237.502 28ZM237.296 22.2827H245.08V24.6832H237.296V22.2827ZM247.624 15.9901V13.4545H259.57V15.9901H255.117V28H252.077V15.9901H247.624ZM273.707 18.5469H270.597C270.54 18.1444 270.424 17.7869 270.249 17.4744C270.073 17.1572 269.848 16.8873 269.574 16.6648C269.299 16.4422 268.982 16.2718 268.622 16.1534C268.267 16.035 267.881 15.9759 267.464 15.9759C266.712 15.9759 266.056 16.1629 265.497 16.5369C264.938 16.9062 264.505 17.446 264.197 18.1562C263.89 18.8617 263.736 19.7187 263.736 20.7273C263.736 21.7642 263.89 22.6354 264.197 23.3409C264.51 24.0464 264.946 24.5791 265.504 24.9389C266.063 25.2988 266.709 25.4787 267.443 25.4787C267.855 25.4787 268.236 25.4242 268.587 25.3153C268.942 25.2064 269.257 25.0478 269.531 24.8395C269.806 24.6264 270.033 24.3684 270.213 24.0653C270.398 23.7623 270.526 23.4167 270.597 23.0284L273.707 23.0426C273.627 23.7102 273.426 24.3542 273.104 24.9744C272.786 25.59 272.358 26.1416 271.818 26.6293C271.283 27.1122 270.644 27.4957 269.901 27.7798C269.162 28.0592 268.326 28.1989 267.393 28.1989C266.096 28.1989 264.936 27.9053 263.913 27.3182C262.895 26.7311 262.09 25.8812 261.499 24.7685C260.911 23.6558 260.618 22.3087 260.618 20.7273C260.618 19.1411 260.916 17.7917 261.513 16.679C262.109 15.5663 262.919 14.7187 263.942 14.1364C264.964 13.5492 266.115 13.2557 267.393 13.2557C268.236 13.2557 269.018 13.3741 269.737 13.6108C270.462 13.8475 271.103 14.1932 271.662 14.6477C272.221 15.0975 272.675 15.6491 273.026 16.3026C273.381 16.956 273.608 17.7041 273.707 18.5469ZM275.913 28V13.4545H278.988V19.456H285.231V13.4545H288.299V28H285.231V21.9915H278.988V28H275.913Z" fill="white"/>
<g clip-path="url(#clip1_29_42)">
<g clip-path="url(#clip2_29_42)">
<g clip-path="url(#clip3_29_42)">
<g filter="url(#filter0_d_29_42)">
<path d="M128.267 185.273C121.479 185.273 115.434 184.106 110.131 181.773C104.858 179.409 100.691 176.167 97.6307 172.045C94.6004 167.894 93.0398 163.106 92.9489 157.682H112.767C112.888 159.955 113.631 161.955 114.994 163.682C116.388 165.379 118.237 166.697 120.54 167.636C122.843 168.576 125.434 169.045 128.312 169.045C131.312 169.045 133.964 168.515 136.267 167.455C138.57 166.394 140.373 164.924 141.676 163.045C142.979 161.167 143.631 159 143.631 156.545C143.631 154.061 142.934 151.864 141.54 149.955C140.176 148.015 138.206 146.5 135.631 145.409C133.085 144.318 130.055 143.773 126.54 143.773H117.858V129.318H126.54C129.509 129.318 132.131 128.803 134.403 127.773C136.706 126.742 138.494 125.318 139.767 123.5C141.04 121.652 141.676 119.5 141.676 117.045C141.676 114.712 141.116 112.667 139.994 110.909C138.903 109.121 137.358 107.727 135.358 106.727C133.388 105.727 131.085 105.227 128.449 105.227C125.782 105.227 123.343 105.712 121.131 106.682C118.919 107.621 117.146 108.97 115.812 110.727C114.479 112.485 113.767 114.545 113.676 116.909H94.8125C94.9034 111.545 96.4337 106.818 99.4034 102.727C102.373 98.6364 106.373 95.4394 111.403 93.1364C116.464 90.803 122.176 89.6364 128.54 89.6364C134.964 89.6364 140.585 90.803 145.403 93.1364C150.222 95.4697 153.964 98.6212 156.631 102.591C159.328 106.53 160.661 110.955 160.631 115.864C160.661 121.076 159.04 125.424 155.767 128.909C152.525 132.394 148.297 134.606 143.085 135.545V136.273C149.934 137.152 155.146 139.53 158.722 143.409C162.328 147.258 164.116 152.076 164.085 157.864C164.116 163.167 162.585 167.879 159.494 172C156.434 176.121 152.206 179.364 146.812 181.727C141.419 184.091 135.237 185.273 128.267 185.273Z" fill="black"/>
<path d="M110.131 181.773L109.722 182.685L109.728 182.688L110.131 181.773ZM97.6307 172.045L96.8229 172.635L96.8279 172.642L97.6307 172.045ZM92.9489 157.682V156.682H91.932L91.949 157.699L92.9489 157.682ZM112.767 157.682L113.766 157.629L113.715 156.682H112.767V157.682ZM114.994 163.682L114.209 164.301L114.215 164.309L114.222 164.317L114.994 163.682ZM120.54 167.636L120.162 168.562H120.162L120.54 167.636ZM136.267 167.455L135.849 166.546L136.267 167.455ZM141.676 163.045L142.498 163.615L141.676 163.045ZM141.54 149.955L140.722 150.53L140.727 150.537L140.732 150.544L141.54 149.955ZM135.631 145.409L135.237 146.328L135.241 146.33L135.631 145.409ZM117.858 143.773H116.858V144.773H117.858V143.773ZM117.858 129.318V128.318H116.858V129.318H117.858ZM134.403 127.773L133.995 126.86L133.991 126.862L134.403 127.773ZM139.767 123.5L140.586 124.073L140.591 124.067L139.767 123.5ZM139.994 110.909L139.141 111.43L139.146 111.438L139.151 111.447L139.994 110.909ZM135.358 106.727L134.905 107.619L134.911 107.622L135.358 106.727ZM121.131 106.682L121.522 107.602L121.532 107.598L121.131 106.682ZM115.812 110.727L116.609 111.332H116.609L115.812 110.727ZM113.676 116.909V117.909H114.638L114.675 116.948L113.676 116.909ZM94.8125 116.909L93.8126 116.892L93.7954 117.909H94.8125V116.909ZM99.4034 102.727L100.213 103.315H100.213L99.4034 102.727ZM111.403 93.1364L111.82 94.0456L111.822 94.0445L111.403 93.1364ZM145.403 93.1364L145.839 92.2363L145.403 93.1364ZM156.631 102.591L155.801 103.149L155.806 103.156L156.631 102.591ZM160.631 115.864L159.631 115.857L159.631 115.869L160.631 115.864ZM155.767 128.909L155.038 128.225L155.035 128.228L155.767 128.909ZM143.085 135.545L142.908 134.561L142.085 134.71V135.545H143.085ZM143.085 136.273H142.085V137.153L142.958 137.265L143.085 136.273ZM158.722 143.409L157.986 144.087L157.992 144.093L158.722 143.409ZM164.085 157.864L163.085 157.858L163.085 157.869L164.085 157.864ZM159.494 172L158.694 171.4L158.691 171.404L159.494 172ZM146.812 181.727L146.411 180.811L146.812 181.727ZM128.267 184.273C121.594 184.273 115.69 183.126 110.533 180.857L109.728 182.688C115.178 185.086 121.364 186.273 128.267 186.273V184.273ZM110.54 180.86C105.403 178.558 101.38 175.417 98.4335 171.449L96.8279 172.642C100.003 176.917 104.313 180.261 109.722 182.685L110.54 180.86ZM98.4384 171.456C95.5366 167.48 94.0364 162.895 93.9487 157.665L91.949 157.699C92.0432 163.317 93.6641 168.307 96.823 172.635L98.4384 171.456ZM92.9489 158.682H112.767V156.682H92.9489V158.682ZM111.768 157.735C111.9 160.207 112.713 162.406 114.209 164.301L115.779 163.062C114.548 161.503 113.876 159.702 113.766 157.629L111.768 157.735ZM114.222 164.317C115.734 166.158 117.726 167.569 120.162 168.562L120.917 166.71C118.748 165.825 117.042 164.599 115.767 163.047L114.222 164.317ZM120.162 168.562C122.602 169.558 125.324 170.045 128.312 170.045V168.045C125.543 168.045 123.083 167.594 120.917 166.71L120.162 168.562ZM128.312 170.045C131.431 170.045 134.229 169.494 136.685 168.363L135.849 166.546C133.699 167.536 131.194 168.045 128.312 168.045V170.045ZM136.685 168.363C139.133 167.236 141.082 165.657 142.498 163.615L140.854 162.476C139.664 164.192 138.008 165.552 135.849 166.546L136.685 168.363ZM142.498 163.615C143.926 161.557 144.631 159.188 144.631 156.545H142.631C142.631 158.812 142.033 160.777 140.854 162.476L142.498 163.615ZM144.631 156.545C144.631 153.86 143.873 151.454 142.347 149.365L140.732 150.544C141.994 152.273 142.631 154.261 142.631 156.545H144.631ZM142.358 149.379C140.869 147.261 138.737 145.639 136.021 144.488L135.241 146.33C137.676 147.361 139.484 148.769 140.722 150.53L142.358 149.379ZM136.025 144.49C133.326 143.333 130.155 142.773 126.54 142.773V144.773C129.955 144.773 132.844 145.303 135.237 146.328L136.025 144.49ZM126.54 142.773H117.858V144.773H126.54V142.773ZM118.858 143.773V129.318H116.858V143.773H118.858ZM117.858 130.318H126.54V128.318H117.858V130.318ZM126.54 130.318C129.625 130.318 132.392 129.783 134.816 128.684L133.991 126.862C131.87 127.823 129.394 128.318 126.54 128.318V130.318ZM134.812 128.686C137.257 127.592 139.196 126.059 140.586 124.073L138.948 122.927C137.792 124.577 136.156 125.893 133.995 126.86L134.812 128.686ZM140.591 124.067C141.989 122.036 142.676 119.683 142.676 117.045H140.676C140.676 119.317 140.09 121.267 138.943 122.933L140.591 124.067ZM142.676 117.045C142.676 114.545 142.073 112.308 140.837 110.371L139.151 111.447C140.158 113.025 140.676 114.879 140.676 117.045H142.676ZM140.848 110.388C139.653 108.429 137.961 106.911 135.805 105.833L134.911 107.622C136.755 108.544 138.154 109.813 139.141 111.43L140.848 110.388ZM135.811 105.836C133.676 104.752 131.212 104.227 128.449 104.227V106.227C130.958 106.227 133.101 106.703 134.905 107.619L135.811 105.836ZM128.449 104.227C125.658 104.227 123.081 104.735 120.729 105.766L121.532 107.598C123.605 106.689 125.906 106.227 128.449 106.227V104.227ZM120.74 105.761C118.382 106.763 116.464 108.214 115.016 110.123L116.609 111.332C117.828 109.725 119.455 108.48 121.522 107.602L120.74 105.761ZM115.016 110.123C113.549 112.056 112.775 114.318 112.677 116.871L114.675 116.948C114.759 114.773 115.409 112.914 116.609 111.332L115.016 110.123ZM113.676 115.909H94.8125V117.909H113.676V115.909ZM95.8124 116.926C95.9 111.754 97.3711 107.229 100.213 103.315L98.5942 102.14C95.4963 106.407 93.9068 111.337 93.8126 116.892L95.8124 116.926ZM100.213 103.315C103.072 99.376 106.931 96.2839 111.82 94.0456L110.987 92.2271C105.815 94.5949 101.674 97.8967 98.5942 102.14L100.213 103.315ZM111.822 94.0445C116.734 91.7797 122.3 90.6364 128.54 90.6364V88.6364C122.052 88.6364 116.194 89.8263 110.985 92.2282L111.822 94.0445ZM128.54 90.6364C134.843 90.6364 140.31 91.7807 144.968 94.0364L145.839 92.2363C140.861 89.8253 135.085 88.6364 128.54 88.6364V90.6364ZM144.968 94.0364C149.646 96.3019 153.244 99.3428 155.801 103.149L157.461 102.033C154.684 97.8996 150.797 94.6374 145.839 92.2363L144.968 94.0364ZM155.806 103.156C158.384 106.922 159.66 111.146 159.631 115.857L161.631 115.87C161.662 110.763 160.271 106.138 157.456 102.026L155.806 103.156ZM159.631 115.869C159.66 120.85 158.119 124.944 155.038 128.225L156.496 129.594C159.961 125.904 161.662 121.301 161.631 115.858L159.631 115.869ZM155.035 128.228C151.956 131.537 147.932 133.656 142.908 134.561L143.263 136.53C148.662 135.556 153.093 133.251 156.499 129.59L155.035 128.228ZM142.085 135.545V136.273H144.085V135.545H142.085ZM142.958 137.265C149.646 138.123 154.614 140.428 157.986 144.087L159.457 142.731C155.678 138.632 150.221 136.18 143.213 135.281L142.958 137.265ZM157.992 144.093C161.405 147.736 163.114 152.299 163.085 157.858L165.085 157.869C165.117 151.852 163.25 146.779 159.451 142.725L157.992 144.093ZM163.085 157.869C163.114 162.961 161.65 167.459 158.694 171.4L160.294 172.6C163.52 168.299 165.117 163.372 165.085 157.858L163.085 157.869ZM158.691 171.404C155.749 175.366 151.67 178.507 146.411 180.811L147.214 182.643C152.743 180.22 157.118 176.877 160.297 172.596L158.691 171.404ZM146.411 180.811C141.165 183.11 135.124 184.273 128.267 184.273V186.273C135.35 186.273 141.672 185.072 147.214 182.643L146.411 180.811Z" fill="black"/>
</g>
<rect width="249" height="99" transform="translate(4 38)" fill="black" fill-opacity="0.05"/>
<path d="M129 63L79 113H179L129 63Z" fill="white" fill-opacity="0.3"/>
</g>
<rect width="248.5" height="59.9829" transform="translate(4 236.017)" fill="#FF5A5A"/>
<g filter="url(#filter1_d_29_42)">
<rect x="55.6556" y="251.017" width="4.72969" height="37.601" rx="2.36485" transform="rotate(45 55.6556 251.017)" fill="white"/>
<rect x="29" y="254.412" width="4.72969" height="37.601" rx="2.36485" transform="rotate(-45 29 254.412)" fill="white"/>
</g>
<rect x="139.906" y="251.017" width="4.72969" height="37.601" rx="2.36485" transform="rotate(45 139.906 251.017)" fill="#F21F1F"/>
<rect x="113.25" y="254.412" width="4.72969" height="37.601" rx="2.36485" transform="rotate(-45 113.25 254.412)" fill="#F21F1F"/>
<rect x="224.156" y="251.017" width="4.72969" height="37.601" rx="2.36485" transform="rotate(45 224.156 251.017)" fill="#F21F1F"/>
<rect x="197.5" y="254.412" width="4.72969" height="37.601" rx="2.36485" transform="rotate(-45 197.5 254.412)" fill="#F21F1F"/>
</g>
<g clip-path="url(#clip4_29_42)">
<path d="M393.733 90.9091V184H374.051V109.591H373.506L352.188 122.955V105.5L375.233 90.9091H393.733Z" fill="black"/>
<rect width="248.5" height="59.9829" transform="translate(252.5 236.017)" fill="#FF5A5A"/>
<g filter="url(#filter2_d_29_42)">
<rect x="304.156" y="251.017" width="4.72969" height="37.601" rx="2.36485" transform="rotate(45 304.156 251.017)" fill="white"/>
<rect x="277.5" y="254.412" width="4.72969" height="37.601" rx="2.36485" transform="rotate(-45 277.5 254.412)" fill="white"/>
</g>
<g filter="url(#filter3_d_29_42)">
<rect x="388.406" y="251.017" width="4.72969" height="37.601" rx="2.36485" transform="rotate(45 388.406 251.017)" fill="white"/>
<rect x="361.75" y="254.412" width="4.72969" height="37.601" rx="2.36485" transform="rotate(-45 361.75 254.412)" fill="white"/>
</g>
<rect x="472.656" y="251.017" width="4.72969" height="37.601" rx="2.36485" transform="rotate(45 472.656 251.017)" fill="#AD2B2B"/>
<rect x="446" y="254.412" width="4.72969" height="37.601" rx="2.36485" transform="rotate(-45 446 254.412)" fill="#AD2B2B"/>
</g>
<path d="M253.5 296V38H251.5V296H253.5Z" fill="black" fill-opacity="0.1"/>
</g>
</g>
<rect x="2" y="2" width="501" height="296" rx="22" stroke="black" stroke-width="4"/>
<defs>
<filter id="filter0_d_29_42" x="88.9489" y="89.6364" width="79.1818" height="103.636" filterUnits="userSpaceOnUse" color-interpolation-filters="sRGB">
<feFlood flood-opacity="0" result="BackgroundImageFix"/>
<feColorMatrix in="SourceAlpha" type="matrix" values="0 0 0 0 0 0 0 0 0 0 0 0 0 0 0 0 0 0 127 0" result="hardAlpha"/>
<feOffset dy="4"/>
<feGaussianBlur stdDeviation="2"/>
<feComposite in2="hardAlpha" operator="out"/>
<feColorMatrix type="matrix" values="0 0 0 0 0 0 0 0 0 0 0 0 0 0 0 0 0 0 0.25 0"/>
<feBlend mode="normal" in2="BackgroundImageFix" result="effect1_dropShadow_29_42"/>
<feBlend mode="normal" in="SourceGraphic" in2="effect1_dropShadow_29_42" result="shape"/>
</filter>
<filter id="filter1_d_29_42" x="22" y="244.017" width="44" height="43.9829" filterUnits="userSpaceOnUse" color-interpolation-filters="sRGB">
<feFlood flood-opacity="0" result="BackgroundImageFix"/>
<feColorMatrix in="SourceAlpha" type="matrix" values="0 0 0 0 0 0 0 0 0 0 0 0 0 0 0 0 0 0 127 0" result="hardAlpha"/>
<feOffset/>
<feGaussianBlur stdDeviation="3.5"/>
<feComposite in2="hardAlpha" operator="out"/>
<feColorMatrix type="matrix" values="0 0 0 0 1 0 0 0 0 1 0 0 0 0 1 0 0 0 0.5 0"/>
<feBlend mode="normal" in2="BackgroundImageFix" result="effect1_dropShadow_29_42"/>
<feBlend mode="normal" in="SourceGraphic" in2="effect1_dropShadow_29_42" result="shape"/>
</filter>
<filter id="filter2_d_29_42" x="270.5" y="244.017" width="44" height="43.9829" filterUnits="userSpaceOnUse" color-interpolation-filters="sRGB">
<feFlood flood-opacity="0" result="BackgroundImageFix"/>
<feColorMatrix in="SourceAlpha" type="matrix" values="0 0 0 0 0 0 0 0 0 0 0 0 0 0 0 0 0 0 127 0" result="hardAlpha"/>
<feOffset/>
<feGaussianBlur stdDeviation="3.5"/>
<feComposite in2="hardAlpha" operator="out"/>
<feColorMatrix type="matrix" values="0 0 0 0 1 0 0 0 0 1 0 0 0 0 1 0 0 0 0.5 0"/>
<feBlend mode="normal" in2="BackgroundImageFix" result="effect1_dropShadow_29_42"/>
<feBlend mode="normal" in="SourceGraphic" in2="effect1_dropShadow_29_42" result="shape"/>
</filter>
<filter id="filter3_d_29_42" x="354.75" y="244.017" width="44" height="43.9829" filterUnits="userSpaceOnUse" color-interpolation-filters="sRGB">
<feFlood flood-opacity="0" result="BackgroundImageFix"/>
<feColorMatrix in="SourceAlpha" type="matrix" values="0 0 0 0 0 0 0 0 0 0 0 0 0 0 0 0 0 0 127 0" result="hardAlpha"/>
<feOffset/>
<feGaussianBlur stdDeviation="3.5"/>
<feComposite in2="hardAlpha" operator="out"/>
<feColorMatrix type="matrix" values="0 0 0 0 1 0 0 0 0 1 0 0 0 0 1 0 0 0 0.5 0"/>
<feBlend mode="normal" in2="BackgroundImageFix" result="effect1_dropShadow_29_42"/>
<feBlend mode="normal" in="SourceGraphic" in2="effect1_dropShadow_29_42" result="shape"/>
</filter>
<clipPath id="clip0_29_42">
<rect x="4" y="4" width="497" height="292" rx="20" fill="white"/>
</clipPath>
<clipPath id="clip1_29_42">
<rect width="497" height="258" fill="white" transform="translate(4 38)"/>
</clipPath>
<clipPath id="clip2_29_42">
<rect width="248.5" height="258" fill="white" transform="translate(4 38)"/>
</clipPath>
<clipPath id="clip3_29_42">
<rect width="248.5" height="198.017" fill="white" transform="translate(4 38)"/>
</clipPath>
<clipPath id="clip4_29_42">
<path d="M252.5 38H501V296H252.5V38Z" fill="white"/>
</clipPath>
</defs>
</svg>
